<svg xmlns="http://www.w3.org/2000/svg" viewBox="0 0 64 64">
  <defs>
    <linearGradient id="g" x1="0" x2="1" y1="0" y2="1">
      <stop offset="0%" stop-color="#6750A4"/>
      <stop offset="100%" stop-color="#F76B1C"/>
    </linearGradient>
  </defs>
  <rect width="64" height="64" rx="14" fill="#0A0A0F"/>
  <!-- Speech bubble -->
  <path d="M12 18h28a8 8 0 0 1 8 8v2a8 8 0 0 1-8 8H26l-8 8v-8h-6a8 8 0 0 1-8-8v-2a8 8 0 0 1 8-8z" fill="url(#g)"/>
  <!-- Heart -->
  <path d="M46 34c3-5 11-4 12 2 1 6-6 11-12 16-6-5-13-10-12-16 1-6 9-7 12-2z" fill="#FFF8E7" opacity="0.9"/>
</svg>

